<?xml version="1.0" encoding="UTF-8" standalone="no"?>
<!-- Generator: Adobe Illustrator 12.0.1, SVG Export Plug-In . SVG Version: 6.00 Build 51448)  -->

<svg
   xmlns:dc="http://purl.org/dc/elements/1.1/"
   xmlns:cc="http://creativecommons.org/ns#"
   xmlns:rdf="http://www.w3.org/1999/02/22-rdf-syntax-ns#"
   xmlns:svg="http://www.w3.org/2000/svg"
   xmlns="http://www.w3.org/2000/svg"
   xmlns:sodipodi="http://sodipodi.sourceforge.net/DTD/sodipodi-0.dtd"
   xmlns:inkscape="http://www.inkscape.org/namespaces/inkscape"
   version="1.1"
   id="Layer_1"
   width="705.02032"
   height="201.32819"
   viewBox="0 0 705.0203 201.32818"
   style="overflow:visible"
   xml:space="preserve"
   inkscape:version="0.48.3.1 r9886"
   sodipodi:docname="logo.svg"><metadata
   id="metadata35"><rdf:RDF><cc:Work
       rdf:about=""><dc:format>image/svg+xml</dc:format><dc:type
         rdf:resource="http://purl.org/dc/dcmitype/StillImage" /></cc:Work></rdf:RDF></metadata><defs
   id="defs33" /><sodipodi:namedview
   pagecolor="#ffffff"
   bordercolor="#666666"
   borderopacity="1"
   objecttolerance="10"
   gridtolerance="10"
   guidetolerance="10"
   inkscape:pageopacity="0"
   inkscape:pageshadow="2"
   inkscape:window-width="1278"
   inkscape:window-height="783"
   id="namedview31"
   showgrid="false"
   inkscape:zoom="1.2349555"
   inkscape:cx="284.61148"
   inkscape:cy="21.993714"
   inkscape:window-x="0"
   inkscape:window-y="15"
   inkscape:window-maximized="0"
   inkscape:current-layer="Layer_1"
   fit-margin-top="0"
   fit-margin-left="0"
   fit-margin-right="0"
   fit-margin-bottom="0" />














<g
   id="g3090"
   transform="matrix(0.76809524,0,0,0.76809524,-34.301639,-70.997359)"><path
     inkscape:connector-curvature="0"
     id="path7"
     d="m 109.08602,249.30802 c 9.9,2.6 20.3,4 31,4 10.7,0 21.1,-1.4 31,-4 l 18.5,68.9 c -15.8,4.2 -32.3,6.5 -49.4,6.5 -17.1,0 -33.7,-2.2 -49.400003,-6.5 l 18.300003,-68.9 z"
     style="fill:#8601af" /><path
     inkscape:connector-curvature="0"
     id="path5"
     d="m 252.87033,179.14743 c -9.9,-2.6 -20.3,-4 -31,-4 -10.7,0 -21.1,1.4 -31,4 l -18.4,-68.9 c 15.8,-4.2 32.3,-6.5 49.4,-6.5 17.1,0 33.7,2.2 49.4,6.5 l -18.4,68.9 z"
     style="fill:#fefe33" /><path
     inkscape:connector-curvature="0"
     id="path9"
     d="m 220.02119,161.33302 c -9.9,2.7 -19.6,6.6 -28.9,12 -9.3,5.4 -17.6,11.8 -24.8,19 l -50.4,-50.5 c 11.6,-11.5 24.8,-21.8 39.6,-30.3 14.8,-8.6 30.3,-14.900005 46.1,-19.100005 l 18.4,68.900005 z"
     style="fill:#d0ea2b" /><path
     inkscape:connector-curvature="0"
     id="path11"
     d="m 137.07669,285.74658 c 9.9,-2.7 19.6,-6.6 28.9,-12 9.3,-5.4 17.6,-11.8 24.8,-19 l 50.4,50.4 c -11.5,11.5 -24.8,21.8 -39.6,30.3 -14.8,8.5 -30.3,14.9 -46.1,19.1 l -18.4,-68.8 z"
     style="fill:#a7194b" /><path
     inkscape:connector-curvature="0"
     id="path13"
     d="m 191.52331,156.70421 c -7.2,7.2 -13.6,15.5 -19,24.8 -5.4,9.3 -9.3,19 -12,28.9 l -68.900005,-18.5 c 4.2,-15.8 10.600005,-31.2 19.100005,-46.1 8.6,-14.8 18.8,-28 30.3,-39.6 l 50.5,50.5 z"
     style="fill:#66b032" /><path
     inkscape:connector-curvature="0"
     id="path15"
     d="m 181.05975,291.18514 c 7.2,-7.2 13.6,-15.5 19,-24.8 5.4,-9.3 9.3,-19 12,-28.9 l 68.9,18.5 c -4.2,15.8 -10.6,31.2 -19.1,46.1 -8.6,14.8 -18.8,28 -30.3,39.6 l -50.5,-50.5 z"
     style="fill:#fe2712" /><path
     inkscape:connector-curvature="0"
     id="path17"
     d="m 143.51864,163.33895 c -2.6,9.9 -4,20.3 -4,31 0,10.7 1.4,21.1 4,31 l -68.899996,18.5 c -4.2,-15.8 -6.5,-32.3 -6.5,-49.4 0,-17.1 2.2,-33.7 6.5,-49.4 l 68.899996,18.3 z"
     style="fill:#0392ce" /><path
     inkscape:connector-curvature="0"
     id="path19"
     d="m 222.58645,284.45039 c 2.6,-9.9 4.1,-20.3 4.1,-31 0,-10.7 -1.4,-21.1 -4.1,-31 l 68.9,-18.5 c 4.2,15.8 6.5,32.3 6.5,49.4 0,17.1 -2.2,33.7 -6.5,49.4 l -68.9,-18.3 z"
     style="fill:#fd5308" /><path
     inkscape:connector-curvature="0"
     id="path21"
     d="m 113.55805,199.42709 c 2.7,9.9 6.6,19.6 12,28.9 5.4,9.3 11.8,17.6 19,24.8 l -50.499999,50.4 c -11.5,-11.5 -21.8,-24.8 -30.3,-39.6 -8.5,-14.8 -14.9,-30.3 -19.1,-46.1 l 68.899999,-18.4 z"
     style="fill:#0247fe" /><path
     inkscape:connector-curvature="0"
     id="path23"
     d="m 262.26398,257.26946 c -2.7,-9.9 -6.6,-19.6 -12,-28.9 -5.4,-9.3 -11.8,-17.6 -19,-24.8 l 50.4,-50.4 c 11.5,11.5 21.8,24.8 30.3,39.6 8.6,14.8 14.9,30.3 19.1,46.1 l -68.8,18.4 z"
     style="fill:#fb9902" /><path
     inkscape:connector-curvature="0"
     id="path27"
     d="m 270.94153,215.81565 c -7.2,-7.2 -15.5,-13.6 -24.8,-19 -9.3,-5.4 -19,-9.3 -28.9,-12 l 18.5,-68.9 c 15.8,4.2 31.2,10.6 46.1,19.1 14.8,8.6 28,18.8 39.6,30.3 l -50.5,50.5 z"
     style="fill:#fabc02" /><path
     inkscape:connector-curvature="0"
     id="path25"
     d="m 106.5,228.02497 c 7.2,7.2 15.5,13.6 24.8,19 9.3,5.4 19,9.3 28.9,12 l -18.5,68.9 c -15.8,-4.2 -31.2,-10.6 -46.1,-19.1 -14.8,-8.6 -28,-18.8 -39.6,-30.3 l 50.5,-50.5 z"
     style="fill:#3d01a4" /><path
     inkscape:connector-curvature="0"
     id="path5-1"
     d="m 221.8543,103.78433 c -3.55547,0 -7.09106,0.11723 -10.59375,0.3125 l 11.71875,32.84375 -3.3125,38.28125 c 0.72856,-0.013 1.45607,-0.0312 2.1875,-0.0312 10.7,0 21.1,1.4 31,4 l 18.40625,-68.90625 c -15.7,-4.3 -32.30625,-6.5 -49.40625,-6.5 z"
     style="fill:#fefe33;overflow:visible" /></g><text
   xml:space="preserve"
   style="font-size:160px;font-style:normal;font-variant:normal;font-weight:500;font-stretch:normal;line-height:125%;letter-spacing:0px;word-spacing:0px;fill:#000000;fill-opacity:1;stroke:none;font-family:Klavika;-inkscape-font-specification:Klavika Medium"
   x="241.63033"
   y="152.34856"
   id="text3105"
   sodipodi:linespacing="125%"><tspan
     sodipodi:role="line"
     id="tspan3107"
     x="241.63033"
     y="152.34856"
     style="font-style:normal;font-variant:normal;font-weight:normal;font-stretch:normal;font-family:Qlassik Bold;-inkscape-font-specification:Qlassik Bold">LosKoch</tspan></text>

</svg>